<svg id="Capa_1" enable-background="new 0 0 510.768 510.768" height="512" viewBox="0 0 510.768 510.768" width="512" xmlns="http://www.w3.org/2000/svg"><g id="XMLID_586_"><path id="XMLID_2_" d="m85.282 238.218h52.333v30h-52.333z" fill="#cfe6e6"/><circle id="XMLID_3193_" cx="316.691" cy="255.384" fill="#fff5f5" r="179.076"/><path id="XMLID_3192_" d="m316.691 76.308c-.391 0-.779.012-1.17.015v358.122c.391.003.779.015 1.17.015 98.901 0 179.076-80.175 179.076-179.076s-80.175-179.076-179.076-179.076z" fill="#efe2dd"/><path id="XMLID_3_" d="m316.691 449.46c-107.014 0-194.076-87.062-194.076-194.076s87.063-194.076 194.076-194.076 194.076 87.062 194.076 194.076c.001 107.014-87.062 194.076-194.076 194.076zm0-358.152c-90.472 0-164.076 73.604-164.076 164.076s73.605 164.076 164.076 164.076 164.076-73.604 164.076-164.076-73.604-164.076-164.076-164.076z" fill="#9dbec4"/><path id="XMLID_3191_" d="m316.691 61.308c-.391 0-.779.013-1.17.015v30c.391-.003.779-.015 1.17-.015 90.472 0 164.076 73.604 164.076 164.076s-73.604 164.076-164.076 164.076c-.391 0-.779-.012-1.17-.015v30c.391.002.779.015 1.17.015 107.014 0 194.076-87.062 194.076-194.076.001-107.014-87.062-194.076-194.076-194.076z" fill="#7daab3"/><path id="XMLID_4_" d="m0 68.726h100.282v368.983h-100.282z" fill="#b35324"/><path id="XMLID_3167_" d="m407.717 312.447h-47l30-87.334h17c24.078 0 43.667 19.589 43.667 43.667s-19.589 43.667-43.667 43.667zm-27-30h27c7.536 0 13.667-6.131 13.667-13.667s-6.131-13.667-13.667-13.667h-27z" fill="#7daab3"/><path id="XMLID_3198_" d="m228.05 225.113v74.334c0 31.063 25.271 56.333 56.333 56.333h50c31.063 0 56.333-25.271 56.333-56.333v-74.334z" fill="#cfe6e6"/><path id="XMLID_554_" d="m315.521 225.113v130.667h18.862c31.063 0 56.333-25.271 56.333-56.333v-74.334z" fill="#9dbec4"/><path id="XMLID_3165_" d="m270.521 145.447h30v51.333h-30z" fill="#cfe6e6"/><path id="XMLID_3164_" d="m330.521 145.447h30v51.333h-30z" fill="#9dbec4"/></g></svg>