<svg id="Capa_1" enable-background="new 0 0 511.98 511.98" height="512" viewBox="0 0 511.98 511.98" width="512" xmlns="http://www.w3.org/2000/svg"><g><path d="m389.128 177.908-284.04 313.83c-22.885 25.836-62.95 27.178-87.49 2.66-24.424-24.424-23.274-64.549 2.66-87.48l313.74-284.13c5.92-5.37 15.02-5.15 20.67.51l33.94 33.94c5.66 5.65 5.88 14.739.52 20.67z" fill="#afea93"/><path d="m389.128 177.908-284.04 313.83c-22.885 25.836-62.95 27.178-87.49 2.66l354.09-354.08 16.92 16.92c5.66 5.65 5.88 14.739.52 20.67z" fill="#00da80"/><path d="m478.208 116.667c-8.56 25.76-24.11 52.87-38.68 67.44-30.889 30.869-80.845 30.885-111.73 0-30.878-30.878-30.875-80.845 0-111.72 14.58-14.58 41.68-30.12 67.45-38.69 34.78-11.57 61.38-9.47 76.9 6.06 19.11 19.111 14.616 51.191 6.06 76.91z" fill="#e7f1f9"/><path d="m478.208 116.667c-8.56 25.76-24.11 52.87-38.68 67.44-30.843 30.822-80.786 30.913-111.68.04l144.34-144.34c15.49 15.541 17.58 42.11 6.02 76.86z" fill="#d0d5f4"/><path d="m494.398 494.397c-24.507 24.486-64.577 23.208-87.49-2.66l-284.24-313.94c-5.36-5.92-5.14-15.02.52-20.67 16.255-16.254 17.652-17.652 33.94-33.94 5.65-5.66 14.75-5.88 20.67-.52l313.94 284.24c25.876 22.919 27.14 63.01 2.66 87.49z" fill="#ff3838"/><path d="m494.398 494.397c-24.507 24.486-64.577 23.208-87.49-2.66l-284.24-313.94c-5.36-5.92-5.14-15.02.52-20.67l16.97-16.97z" fill="#ff5e90"/><path d="m186.828 181.167c-1.98 1.98-3.681 3.681-5.66 5.66-29.238 29.238-76.809 29.241-106.07 0-14.062-14.062-56.655-56.658-70.71-70.71-5.85-5.86-5.85-15.36 0-21.22 5.86-5.85 15.36-5.85 21.22 0l40.3 40.31 24.04-24.04-40.3-40.31c-5.86-5.86-5.86-15.35 0-21.21s15.35-5.86 21.21 0l40.31 40.3 24.04-24.04-40.31-40.3c-5.85-5.86-5.85-15.36 0-21.22 5.86-5.85 15.36-5.85 21.22 0 59.645 59.657 46.429 46.442 70.71 70.71 29.24 29.251 29.24 76.831 0 106.07z" fill="#d0d5f4"/><path d="m183.998 183.997-2.83 2.83c-29.238 29.238-76.809 29.241-106.07 0-14.057-14.057-56.666-56.669-70.71-70.71-5.85-5.86-5.85-15.36 0-21.22 5.86-5.85 15.36-5.85 21.22 0l40.3 40.31 24.04-24.04-40.3-40.31c-5.86-5.86-5.86-15.35 0-21.21z" fill="#e7f1f9"/></g></svg>