<svg height="512" viewBox="0 0 512 512" width="512" xmlns="http://www.w3.org/2000/svg"><g><path d="m16 32h480v424h-480z" fill="#ffeb99"/><path d="m16 328h480v128h-480z" fill="#ffda44"/><g><path d="m208 56h208v400h-208z" fill="#957856"/><path d="m376 328a16 16 0 0 1 -16-16v-48a16 16 0 0 1 16-16 16 16 0 0 1 16 16v48a16 16 0 0 1 -16 16z" fill="#5f4d37"/><path d="m128 80v80a24 24 0 0 1 -48 0v-80z" fill="#e0e0e2"/><g fill="#ffda44"><path d="m80 56h48v24h-48z"/><path d="m272 88h80v24h-80z"/></g></g><g><path d="m496 448h-72v-112h72a8 8 0 0 0 0-16h-72v-264a8 8 0 0 0 -8-8h-208a8 8 0 0 0 -8 8v264h-184a8 8 0 0 0 0 16h184v112h-184a8 8 0 0 0 0 16h480a8 8 0 0 0 0-16zm-88 0h-192v-384h192z"/><path d="m376 240a24.032 24.032 0 0 0 -24 24v24h-8a8 8 0 0 0 0 16h8v8a24 24 0 0 0 48 0v-48a24.032 24.032 0 0 0 -24-24zm8 72a8 8 0 0 1 -16 0v-8h8a8 8 0 0 0 0-16h-8v-24a8 8 0 0 1 16 0z"/><path d="m128 48h-48a8 8 0 0 0 -8 8v104a32.058 32.058 0 0 0 24 30.99v17.01a8 8 0 0 0 16 0v-17.01a32.058 32.058 0 0 0 24-30.99v-104a8 8 0 0 0 -8-8zm-8 112a16 16 0 0 1 -32 0v-72h32zm0-88h-32v-8h32z"/><path d="m360 112v-24a8 8 0 0 0 -8-8h-80a8 8 0 0 0 -8 8v24a8 8 0 0 0 8 8h80a8 8 0 0 0 8-8zm-16-8h-64v-8h64z"/></g></g></svg>