<svg id="Layer_1" enable-background="new 0 0 256 256" height="512" viewBox="0 0 256 256" width="512" xmlns="http://www.w3.org/2000/svg"><g><g><path d="m177.215 33.367h-99.915c-5.815 0-10.528 4.714-10.528 10.528v5.959h120.972v-5.959c-.001-5.814-4.715-10.528-10.529-10.528z" fill="#7bac51"/></g><g><path d="m195.458 68.375h-136.402c-5.114 0-9.26-4.146-9.26-9.26 0-5.114 4.146-9.26 9.26-9.26h136.402c5.114 0 9.26 4.146 9.26 9.26.001 5.114-4.145 9.26-9.26 9.26z" fill="#7bac51"/></g><g><path d="m177.215 222.633h-99.915l-10.529-154.258h120.972z" fill="#7bac51"/></g><g><path d="m195.458 49.855h-10.317c5.114 0 9.26 4.146 9.26 9.26s-4.146 9.26-9.26 9.26h10.317c5.114 0 9.26-4.146 9.26-9.26.001-5.114-4.145-9.26-9.26-9.26z" fill="#5d8e33"/></g><g><path d="m59.056 68.375h10.317c-5.114 0-9.26-4.146-9.26-9.26s4.146-9.26 9.26-9.26h-10.317c-5.114 0-9.26 4.146-9.26 9.26s4.146 9.26 9.26 9.26z" fill="#99ca6f"/></g><g><path d="m177.215 33.367h-10.317c5.815 0 10.528 4.714 10.528 10.528v5.959h10.317v-5.959c0-5.814-4.714-10.528-10.528-10.528z" fill="#5d8e33"/></g><g><path d="m77.3 33.367h10.317c-5.815 0-10.528 4.714-10.528 10.528v5.959h-10.318v-5.959c0-5.814 4.714-10.528 10.529-10.528z" fill="#99ca6f"/></g><g><path d="m178.572 68.375-10.528 154.258h9.171l10.528-154.258z" fill="#5d8e33"/></g><g><path d="m75.942 68.375 10.529 154.258h-9.171l-10.529-154.258z" fill="#99ca6f"/></g><g><path d="m195.458 70.375h-136.402c-6.209 0-11.26-5.051-11.26-11.26 0-6.208 5.051-11.26 11.26-11.26h136.402c6.209 0 11.261 5.051 11.261 11.26s-5.052 11.26-11.261 11.26zm-136.402-18.52c-4.003 0-7.26 3.257-7.26 7.26 0 4.004 3.257 7.26 7.26 7.26h136.402c4.004 0 7.261-3.257 7.261-7.26s-3.257-7.26-7.261-7.26z" fill="#690589"/></g><g><path d="m187.743 51.855h-120.972c-1.104 0-2-.895-2-2v-5.959c0-6.908 5.62-12.529 12.528-12.529h99.915c6.908 0 12.528 5.621 12.528 12.529v5.959c.001 1.105-.894 2-1.999 2zm-118.972-4h116.972v-3.959c0-4.703-3.826-8.529-8.528-8.529h-99.915c-4.702 0-8.528 3.826-8.528 8.529v3.959z" fill="#690589"/></g><g><path d="m177.215 224.633h-99.915c-1.052 0-1.924-.814-1.995-1.864l-10.529-154.258c-.038-.553.155-1.097.533-1.501.379-.405.908-.635 1.462-.635h120.972c.554 0 1.083.23 1.462.635.378.405.571.949.533 1.501l-10.528 154.259c-.071 1.049-.943 1.863-1.995 1.863zm-98.047-4h96.179l10.255-150.258h-116.689z" fill="#690589"/></g><g><path d="m143.006 132.987-21.527-37.152h20.409c1.363 0 2.623.727 3.306 1.907l14.91 25.773z" fill="#f4efed"/></g><g><path d="m143.008 134.987c-.691 0-1.362-.358-1.732-.998l-21.527-37.152c-.358-.619-.359-1.382-.002-2.002.356-.62 1.018-1.001 1.732-1.001h20.409c2.07 0 4 1.113 5.037 2.905l14.91 25.773c.268.465.339 1.018.196 1.535-.144.518-.489.956-.959 1.216l-17.098 9.472c-.306.171-.638.252-.966.252zm-18.059-37.152 18.804 32.452 13.6-7.534-13.891-24.009c-.324-.56-.927-.908-1.574-.908h-16.939z" fill="#690589"/></g><g><path d="m124.063 153.285h41.769l-10.219 17.854c-.68 1.189-1.945 1.922-3.315 1.922h-28.235z" fill="#f4efed"/></g><g><path d="m152.298 175.061h-28.235c-1.104 0-2-.896-2-2v-19.776c0-1.104.896-2 2-2h41.77c.713 0 1.372.38 1.73.997.357.617.359 1.378.005 1.997l-10.219 17.854c-1.035 1.806-2.97 2.928-5.051 2.928zm-26.236-4h26.235c.651 0 1.256-.351 1.58-.916l8.505-14.86h-36.32z" fill="#690589"/></g><g><path d="m88.668 153.285 10.235 17.856c.681 1.188 1.945 1.92 3.314 1.92h16.237v3.433c0 1.689 2.032 2.547 3.242 1.368l13.798-13.437c.772-.751.77-1.992-.005-2.741l-13.798-13.347c-1.212-1.172-3.238-.314-3.238 1.373v3.575z" fill="#f4efed"/></g><g><path d="m88.668 153.285-4.449-8.013c-.654-1.178-.639-2.613.039-3.777l15.998-27.461 16.987 9.901-17.04 29.35z" fill="#f4efed"/></g><g><path d="m120.364 180.405c-.513.001-1.03-.101-1.523-.309-1.451-.613-2.39-2.027-2.39-3.602v-1.433h-14.236c-2.08 0-4.015-1.121-5.049-2.926l-10.234-17.856c-.355-.619-.353-1.38.005-1.998.357-.617 1.017-.997 1.731-.997h27.784v-1.575c0-1.573.936-2.985 2.384-3.6 1.448-.614 3.114-.304 4.245.79l13.798 13.347c.767.741 1.189 1.737 1.191 2.803s-.418 2.063-1.182 2.808l-13.799 13.438c-.745.726-1.726 1.11-2.725 1.11zm-28.245-25.12 8.519 14.861c.323.564.928.915 1.578.915h16.236c1.104 0 2 .895 2 2v3.219l13.579-13.223-13.579-13.135v3.363c0 1.105-.896 2-2 2z" fill="#690589"/></g><g><path d="m100.204 155.285h-11.536c-.727 0-1.396-.394-1.748-1.029l-4.449-8.013c-.991-1.784-.969-3.989.059-5.754l15.998-27.462c.268-.458.706-.792 1.219-.927.512-.134 1.057-.062 1.517.206l16.987 9.901c.953.556 1.276 1.778.723 2.732l-17.039 29.35c-.359.616-1.018.996-1.731.996zm-10.359-4h9.208l15.458-26.627-13.534-7.888-14.99 25.733c-.321.552-.329 1.241-.02 1.799z" fill="#690589"/></g><g><path d="m133.062 95.835h-20.864c-1.382 0-2.657.747-3.332 1.953l-7.659 13.674-3.945-2.223c-1.472-.83-3.218.521-2.783 2.154l5.416 20.373c.276 1.038 1.353 1.644 2.383 1.342l19.682-5.774c1.602-.47 1.872-2.624.436-3.475l-3.97-2.353z" fill="#f4efed"/></g><g><path d="m101.733 135.188c-.663 0-1.317-.17-1.912-.506-.927-.522-1.587-1.375-1.86-2.403l-5.415-20.372c-.405-1.523.138-3.131 1.385-4.096 1.246-.964 2.939-1.089 4.313-.314l2.197 1.238 6.679-11.924c1.028-1.835 2.975-2.976 5.078-2.976h20.863c.713 0 1.371.379 1.73.995.357.616.361 1.376.008 1.996l-13.661 23.962 2.277 1.35c1.36.806 2.083 2.281 1.887 3.851-.197 1.569-1.262 2.82-2.779 3.265l-19.683 5.774c-.365.106-.738.16-1.107.16zm-5.266-24.102 5.337 20.077 19.394-5.689-3.791-2.247c-.94-.557-1.259-1.763-.718-2.711l12.931-22.68h-17.421c-.658 0-1.267.356-1.588.931l-7.659 13.673c-.26.463-.693.805-1.205.948-.515.143-1.06.077-1.523-.184z" fill="#690589"/></g><g><path d="m170.329 141.838-7.685-14.455 3.139-1.881c1.418-.85 1.16-2.978-.421-3.464l-19.005-5.835c-1.051-.323-2.158.307-2.417 1.376l-4.686 19.334c-.395 1.63 1.352 2.941 2.807 2.106l3.27-1.877 14.842 26.031 10.099-17.645c.651-1.138.673-2.532.057-3.69z" fill="#f4efed"/></g><g><path d="m160.172 165.173c-.001 0-.001 0-.002 0-.718-.001-1.38-.386-1.735-1.009l-13.849-24.288-1.529.878c-1.357.779-3.041.675-4.293-.264-1.251-.938-1.821-2.527-1.454-4.048l4.686-19.334c.252-1.043.932-1.945 1.864-2.476.933-.531 2.057-.655 3.083-.341l19.005 5.835c1.497.46 2.544 1.711 2.733 3.266s-.528 3.021-1.871 3.826l-1.509.904 6.793 12.777c0 .001.001.001.001.001.942 1.775.91 3.878-.088 5.622l-10.101 17.645c-.354.622-1.017 1.006-1.734 1.006zm-14.842-30.031c.176 0 .353.023.525.07.513.14.949.477 1.212.939l13.107 22.99 8.361-14.606c.312-.545.322-1.203.026-1.758l-7.685-14.455c-.5-.941-.176-2.107.737-2.654l2.965-1.777-18.72-5.748-4.613 19.037 3.087-1.772c.308-.176.651-.266.998-.266z" fill="#690589"/></g><g><path d="m47.949 130.529 9.954-5.407c1.803-.979 3.757 1.026 2.731 2.803l-5.753 9.965-9.358 16.209-9.359-16.209-5.753-9.965c-1.026-1.777.928-3.783 2.731-2.803l9.955 5.407c1.513.821 3.339.821 4.852 0z" fill="#8852a8"/></g><g><path d="m45.523 156.099c-.715 0-1.375-.381-1.732-1l-15.111-26.174c-.913-1.582-.67-3.523.605-4.831 1.272-1.307 3.205-1.602 4.813-.729l9.954 5.406c.922.5 2.022.5 2.942 0h.001l9.954-5.406c1.604-.871 3.539-.579 4.813.73 1.274 1.308 1.518 3.249.604 4.831l-15.111 26.174c-.357.618-1.017.999-1.732.999zm-13.335-29.22 5.709 10.01 7.626 13.21 13.379-23.174-9.999 5.36c-2.115 1.15-4.643 1.15-6.761 0z" fill="#690589"/></g><g><path d="m45.523 222.633h-18.02c-16.955 0-28.319-17.422-21.486-32.939l12.5-28.384c10.344-23.488 43.668-23.488 54.012 0l12.5 28.384c6.833 15.517-4.531 32.939-21.486 32.939z" fill="#8852a8"/></g><g><path d="m13.53 189.694 12.5-28.384c4.577-10.393 13.655-16.178 23.25-17.374-12.088-1.506-24.996 4.279-30.762 17.374l-12.5 28.384c-6.833 15.517 4.531 32.939 21.486 32.939h7.513c-16.956 0-28.32-17.422-21.487-32.939z" fill="#a670c6"/></g><g><path d="m19.758 181.884c-.269 0-.543-.055-.805-.17-1.012-.445-1.47-1.626-1.024-2.637l5.285-12c.445-1.011 1.628-1.468 2.636-1.024 1.012.445 1.47 1.626 1.024 2.637l-5.285 12c-.329.748-1.063 1.194-1.831 1.194z" fill="#690589"/></g><g><path d="m63.544 224.633h-36.041c-8.641 0-16.618-4.321-21.339-11.558s-5.46-16.279-1.977-24.187l12.5-28.385c5.109-11.602 16.158-18.81 28.836-18.81s23.727 7.208 28.836 18.81l12.5 28.385c3.482 7.908 2.743 16.95-1.978 24.188-4.72 7.236-12.696 11.557-21.337 11.557zm-18.021-78.939c-11.068 0-20.715 6.292-25.176 16.422l-12.5 28.385c-2.936 6.666-2.312 14.288 1.667 20.389 3.98 6.101 10.704 9.744 17.988 9.744h36.041c7.283 0 14.008-3.642 17.987-9.743s4.604-13.724 1.668-20.39l-12.5-28.385c-4.46-10.13-14.106-16.422-25.175-16.422z" fill="#690589"/></g><g><path d="m54.259 146.902h-17.471c-1.772 0-3.209-1.436-3.209-3.208 0-1.772 1.437-3.208 3.209-3.208h17.471c1.772 0 3.208 1.437 3.208 3.208 0 1.772-1.436 3.208-3.208 3.208z" fill="#f4efed"/></g><g><path d="m54.259 148.902h-17.471c-2.872 0-5.209-2.336-5.209-5.208s2.337-5.208 5.209-5.208h17.471c2.872 0 5.208 2.336 5.208 5.208s-2.336 5.208-5.208 5.208zm-17.471-6.417c-.667 0-1.209.542-1.209 1.208 0 .667.542 1.208 1.209 1.208h17.471c.666 0 1.208-.542 1.208-1.208 0-.667-.542-1.208-1.208-1.208z" fill="#690589"/></g><g><path d="m208.051 130.529-9.954-5.407c-1.803-.979-3.757 1.026-2.731 2.803l5.753 9.965 9.358 16.209 9.359-16.209 5.753-9.965c1.026-1.777-.928-3.783-2.731-2.803l-9.954 5.407c-1.514.821-3.34.821-4.853 0z" fill="#8852a8"/></g><g><path d="m210.477 156.099c-.715 0-1.375-.381-1.732-1l-15.111-26.174c-.913-1.581-.67-3.523.605-4.831 1.274-1.309 3.21-1.602 4.813-.73l9.954 5.406h.001c.92.5 2.021.5 2.941 0l9.956-5.406c1.605-.872 3.539-.578 4.812.729 1.274 1.308 1.518 3.25.604 4.831l-15.111 26.174c-.357.62-1.018 1.001-1.732 1.001zm-13.334-29.22 5.708 10.01 7.626 13.21 13.379-23.174-9.999 5.36c-2.114 1.151-4.643 1.151-6.761 0h.001z" fill="#690589"/></g><g><path d="m210.477 222.633h18.02c16.955 0 28.319-17.422 21.486-32.939l-12.5-28.384c-10.343-23.488-43.668-23.488-54.012 0l-12.5 28.384c-6.833 15.517 4.531 32.939 21.486 32.939z" fill="#8852a8"/></g><g><path d="m242.47 189.694-12.5-28.384c-4.577-10.393-13.655-16.178-23.25-17.374 12.088-1.506 24.996 4.279 30.762 17.374l12.5 28.384c6.833 15.517-4.531 32.939-21.486 32.939h-7.513c16.956 0 28.32-17.422 21.487-32.939z" fill="#6a348a"/></g><g><path d="m228.497 224.633h-36.041c-8.641 0-16.618-4.321-21.339-11.559-4.721-7.237-5.46-16.279-1.977-24.187l12.5-28.385c5.109-11.602 16.158-18.81 28.836-18.81s23.727 7.208 28.836 18.81l12.5 28.385c3.483 7.908 2.744 16.95-1.977 24.187-4.72 7.238-12.697 11.559-21.338 11.559zm-18.02-78.939c-11.068 0-20.715 6.292-25.176 16.422l-12.5 28.385c-2.936 6.666-2.312 14.288 1.667 20.389s10.704 9.744 17.988 9.744h36.041c7.284 0 14.009-3.643 17.988-9.744s4.603-13.723 1.667-20.389l-12.5-28.385c-4.461-10.13-14.107-16.422-25.175-16.422z" fill="#690589"/></g><g><path d="m201.741 146.902h17.471c1.772 0 3.208-1.436 3.208-3.208 0-1.772-1.437-3.208-3.208-3.208h-17.471c-1.772 0-3.208 1.437-3.208 3.208 0 1.772 1.436 3.208 3.208 3.208z" fill="#f4efed"/></g><g><path d="m219.212 148.902h-17.471c-2.872 0-5.208-2.336-5.208-5.208s2.336-5.208 5.208-5.208h17.471c2.872 0 5.209 2.336 5.209 5.208s-2.337 5.208-5.209 5.208zm-17.471-6.417c-.666 0-1.208.542-1.208 1.208 0 .667.542 1.208 1.208 1.208h17.471c.667 0 1.209-.542 1.209-1.208 0-.667-.542-1.208-1.209-1.208z" fill="#690589"/></g></g></svg>