<svg id="Capa_1" enable-background="new 0 0 511.008 511.008" height="512" viewBox="0 0 511.008 511.008" width="512" xmlns="http://www.w3.org/2000/svg"><g><g><g><g><path d="m7.5 97.754h496.008v345h-496.008z" fill="#9eb6f4"/><path d="m37.507 413.254v-315.5h-30.007v345h496.008v-29.5z" fill="#6e91ef"/><path d="m37.507 128.254h435.993v284h-435.993z" fill="#fff"/><path d="m60.504 389.74v-261.486h-22.997v284h435.993v-22.514z" fill="#c8d1da"/><path d="m83.833 382.587h74v30.667h-74z" fill="#e46a4a"/><path d="m83.833 382.587h20.667v30.667h-20.667z" fill="#be310c"/><path d="m187.834 68.254h135.332v59.335h-135.332z" fill="#92a2b5"/><path d="m210.834 105.589v-37.335h-23v59.335h135.332v-22z" fill="#61748b"/></g></g></g><g><path d="m435.5 90.254h15v15h-15z"/><path d="m465.5 90.254v15h30.508v330h-481.008v-330h165.334v15.5h-149.326v209.5h15v-194.5h419.993v270h-300.668v-30.667h-89v30.667h-30.325v-30.5h-15v45.5h449.993v-300h-150.335v-15.5h89.834v-15h-89.834v-29.5h-150.332v29.5h-180.334v360h511.008v-360zm-374.167 299.833h59v15.667h-59zm104.001-314.333h120.332v44.334h-120.332z"/><path d="m31.008 345.253h15v15h-15z"/><path d="m210.001 315.589v-90.166h-59.667v90.166h15v-30.167h29.667v30.167zm-44.667-45.166v-30h29.667v30z"/><path d="m286.001 237.733-10.966-12.31h-49.7v90h48.939l11.727-11.727v-28.88l-4.227-4.227 4.227-4.226zm-17.692 2.69 2.692 3.022v16.705l-2.939 2.939h-27.727v-22.666zm2.692 57.06-2.939 2.939h-27.727v-22.333h27.727l2.939 2.939z"/><path d="m360.666 255.589v-30.166h-59.664v90h59.664v-29.333h-15v14.333h-29.664v-60h29.664v15.166z"/><path d="m60.5 150.42h15v15h-15z"/><path d="m90.5 150.42h15v15h-15z"/></g></g></svg>